<svg xmlns="http://www.w3.org/2000/svg" viewBox="0 0 24 24"><title>Open In New</title><path d="M5 18c0 .55.45 1 1 1h12c.55 0 1-.45 1-1v-5c0-.55.45-1 1-1s1 .45 1 1v6c0 1.1-.9 2-2 2H5c-1.1 0-2-.9-2-2V5a2 2 0 0 1 2-2h6c.55 0 1 .45 1 1s-.45 1-1 1H6c-.55 0-1 .45-1 1v12ZM15 5c-.55 0-1-.45-1-1s.45-1 1-1h5c.55 0 1 .45 1 1v5c0 .55-.45 1-1 1s-1-.45-1-1V6.41l-9.13 9.13a.996.996 0 1 1-1.41-1.41L17.59 5H15Z"></path><metadata>app, application, arrow, box, components, in, interface, new, open, right, screen, site, ui, up, ux, web, website, window</metadata></svg>