<svg width="48" height="48" viewBox="0 0 48 48" fill="none" xmlns="http://www.w3.org/2000/svg">
<g clip-path="url(#clip0_184_3)">
<path d="M36.75 0H11.25C5.0368 0 0 5.0368 0 11.25V36.75C0 42.9632 5.0368 48 11.25 48H36.75C42.9632 48 48 42.9632 48 36.75V11.25C48 5.0368 42.9632 0 36.75 0Z" fill="#002A41"/>
<path d="M35.625 9.5625V25.2188L24 31.7812V27.2812L31.7812 22.875V15.9375L24 20.3438V16.2188L35.625 9.5625Z" fill="white" stroke="white" stroke-opacity="0.3" stroke-width="0.3"/>
<path d="M12.375 9.5625V25.2188L24 31.7812V27.2812L16.2188 22.875V15.9375L24 20.3438V16.2188L12.375 9.5625ZM35.625 38.4375V22.7812L24 16.2188V20.7188L31.7812 25.125V31.7812L24 27.2812V31.7812L35.625 38.4375Z" fill="white"/>
<path d="M24 31.7812L12.375 25.2188V9.5625L24 16.2188M24 31.7812V27.2812M24 31.7812L35.625 38.4375V22.7812L24 16.2188M24 27.2812L16.2188 22.875V15.9375L24 20.3438V16.2188M24 27.2812L31.7812 31.7812V25.125L24 20.7188V16.2188" stroke="white" stroke-opacity="0.3" stroke-width="0.3"/>
<path d="M12.375 38.4375V22.7812L24 16.2188V20.7188L16.2188 25.125V31.7812L24 27.2812V31.7812L12.375 38.4375Z" fill="white" stroke="white" stroke-opacity="0.3" stroke-width="0.3"/>
</g>
<defs>
<clipPath id="clip0_184_3">
<rect width="48" height="48" fill="white"/>
</clipPath>
</defs>
</svg>
