<svg width="48" height="48" viewBox="0 0 48 48" fill="none" xmlns="http://www.w3.org/2000/svg">
<g clip-path="url(#clip0_184_3)">
<path d="M36.75 0H11.25C5.0368 0 0 5.0368 0 11.25V36.75C0 42.9632 5.0368 48 11.25 48H36.75C42.9632 48 48 42.9632 48 36.75V11.25C48 5.0368 42.9632 0 36.75 0Z" fill="#242938"/>
<path d="M11.1276 13.6945C11.1276 13.6945 11.8107 16.3292 11.9081 17.2076C12.0059 18.0857 10.1517 20.0373 10.1517 21.0132C10.1517 21.9891 10.5415 23.7455 12.6886 24.6238C14.8357 25.5021 15.1281 27.7463 15.1281 29.1128C15.1281 30.4789 14.3476 33.1133 14.3476 33.1133C14.3476 33.1133 13.8599 39.6512 16.4943 40.8221C19.1287 41.9929 18.5435 41.9929 19.1287 41.9929C19.7141 41.9929 24.0079 43.7498 26.5448 43.0667C29.0819 42.3836 29.7645 41.6031 29.7645 41.6031C29.7645 41.6031 32.3019 41.798 33.0824 39.5534C33.8634 37.3093 34.351 32.6256 34.0582 30.4786C33.7654 28.3316 33.3752 25.5022 35.1315 24.5262C36.8883 23.5503 38.7421 22.3797 38.4494 21.4037C38.1566 20.4278 36.5957 19.0616 36.5957 19.0616C36.5957 19.0616 36.2052 16.6223 36.4978 16.0368C36.7904 15.4513 38.547 13.9872 37.5711 12.914C36.5958 11.8407 34.8388 11.8407 34.8388 11.8407L32.5947 12.0357C32.5947 12.0357 28.7891 8.6205 23.8125 8.81566C18.8361 9.01081 15.7132 12.0357 15.7132 12.0357C15.7132 12.0357 14.0546 11.4502 12.5907 12.0357C11.1269 12.6214 10.8351 12.0355 11.1276 13.6945Z" fill="#FBA919"/>
<path d="M20.0439 28.2232C20.0439 28.2232 18.1115 31.1779 16.6941 33.2747C16.4748 33.5991 18.1115 33.6216 18.1115 33.6216L20.0439 28.2232Z" fill="#E78724"/>
<path d="M20.964 22.0973C20.964 22.0973 20.3815 23.5505 20.0624 24.3209C19.716 25.1585 18.3954 25.5751 18.3954 25.5751C18.3954 25.5751 19.0799 24.8571 19.0799 23.0382C19.0799 22.2751 20.0651 21.9717 20.0651 21.9717L20.964 22.0973Z" fill="#E78724"/>
<path d="M20.3755 22.919C20.3755 22.919 19.1821 24.3396 16.9662 23.544C14.7498 22.7486 14.5226 19.907 14.5226 19.1114C14.5226 18.3158 18.7278 19.907 19.2963 20.248C19.8647 20.589 20.9437 21.9527 20.3755 22.919Z" fill="#E78724"/>
<path d="M12.005 7.73868C12.005 7.73868 14.0507 7.34063 15.4144 8.42047C16.7787 9.50008 17.1759 10.3527 17.1759 10.3527L14.8772 12.1749C14.8772 12.1749 13.7665 11.6599 13.4255 10.1822C13.0846 8.70469 13.3119 8.0229 12.005 7.73868Z" fill="#E78724"/>
<path d="M19.7789 18.8155C18.8981 17.5653 17.4466 17.0199 16.2877 16.9296C14.3117 16.775 13.3735 17.4736 13.3735 17.4736C13.3735 17.4736 16.6098 17.6106 17.5426 18.8357C19.2791 21.1159 21.8125 21.3012 22.2175 20.8004C21.7491 20.8237 21.2338 20.5917 20.6822 20.0701C20.3377 19.7439 20.0583 19.2124 19.7789 18.8155Z" fill="#E78724"/>
<path d="M14.3156 23.2362C14.3156 23.2362 10.7248 22.0018 11.4073 20.7518C12.0891 19.5014 11.5464 18.8203 11.5464 18.8203C11.5464 18.8203 9.54136 20.317 10.0523 21.908C10.3663 22.8846 10.893 23.5916 13.7856 24.9472C15.173 27.5243 14.0721 32.1629 14.138 32.1846C14.2479 32.2212 16.086 31.2761 15.9605 26.9364C15.9223 25.6038 15.8157 23.7845 14.3156 23.2362Z" fill="#E78724"/>
<path d="M19.021 9.9623C17.5153 10.7272 15.4527 11.7924 15.4527 11.7924L16.2645 12.1985C16.187 12.324 16.1496 12.3989 16.1496 12.3989L16.9829 12.7778C16.9829 12.7778 19.0169 14.2513 20.2632 15.1986C19.8477 13.9191 18.6279 11.909 18.6279 11.909C18.6279 11.909 18.2823 10.9853 19.021 9.9623Z" fill="#E78724"/>
<path d="M24.0227 41.1419C19.395 41.1419 17.8274 38.7925 17.8274 38.7925L18.5507 40.5537C18.824 41.3156 21.7403 43.6865 24.0157 43.6865" fill="#E78724"/>
<path d="M18.3345 37.2051C18.3345 37.2051 18.7603 39.8072 20.4652 39.8072C21.9139 39.8072 22.3408 37.6092 22.3408 37.155L18.3345 37.2051Z" fill="#E78724"/>
<path d="M15.4975 33.2807C15.6489 32.8637 16.1793 31.1779 16.3496 29.6437C16.5539 27.8062 16.4794 25.1187 16.4794 25.1187C16.4794 25.1187 16.0246 26.8803 15.6268 27.165C15.2292 27.449 14.4903 29.3809 14.4903 29.3809C14.4903 29.3809 14.0945 32.2572 13.9061 33.2239C14.4274 33.3283 14.8663 33.0211 15.4975 33.2807Z" fill="#E78724"/>
<path d="M11.3805 21.8798C11.3805 21.8798 12.3463 21.5385 12.6307 19.4362C12.9147 17.3334 12.2895 15.515 12.2895 15.515C12.2895 15.515 12.3463 18.4132 12.0055 18.9816C11.6643 19.5497 11.3805 19.7202 10.9825 20.4591C10.5844 21.1982 11.1528 21.6523 11.3805 21.8798Z" fill="#E78724"/>
<path d="M12.5337 8.23602L12.3365 8.11111C11.7551 8.13076 12.5337 8.23602 12.5337 8.23602Z" fill="#FDC168"/>
<path d="M19.8071 9.3398C19.8071 9.3398 18.8981 9.18834 18.4433 8.50655C17.9884 7.82451 16.7005 6.46045 14.6474 6.44521C12.5944 6.42985 10.5632 6.99091 10.5632 6.99091L12.3363 8.11123C12.5238 8.10516 12.8517 8.10766 13.394 8.12576C15.6192 8.1997 15.9617 10.4007 15.9617 10.4007L23.8039 9.32086" fill="#FBA919"/>
<path d="M20.565 21.4963C20.565 21.4963 19.504 22.5573 17.8748 22.216C16.2456 21.8752 15.2604 21.1553 15.1847 19.905C15.1089 18.6548 15.5259 18.1623 15.5259 18.1623C15.5259 18.1623 17.3442 18.731 18.2161 19.4887C19.0874 20.2462 19.7313 21.4586 20.565 21.4963Z" fill="white"/>
<path d="M19.281 21.1174C19.281 21.1174 18.361 21.5377 17.3326 21.1953C15.9864 20.7463 15.8967 19.3463 15.8967 19.3463C15.8967 19.3463 15.0708 21.7699 17.3863 22.2364C19.2434 22.6105 20.3417 21.5343 20.3417 21.5343L19.281 21.1174Z" fill="#C9C9C9"/>
<path d="M19.9348 8.82566C19.8359 6.74718 21.5398 5.09175 22.1301 5.02126C22.1628 5.37347 22.0973 6.7473 22.6875 7.16976C22.8593 6.04764 23.4404 4.81051 25.7348 4C25.2434 5.30334 25.6692 6.39509 25.872 6.90113C27.4389 5.47897 28.4945 5.71401 28.4945 5.71401C28.4945 5.71401 27.4059 7.59257 27.8317 8.82518C24.6863 8.57859 19.9502 9.15941 19.9348 8.82566Z" fill="#463014"/>
<path d="M13.2667 11.9916C12.5162 11.369 13.0756 10.7911 13.0163 10.0838C12.984 9.70737 12.9543 9.35219 12.8302 9.15632C12.1396 8.06576 10.5103 7.73487 10.494 7.73141L9.72937 7.58162L10.2355 6.98949C10.3011 6.91281 12.3799 4.92946 15.5967 5.96799C17.8468 6.69372 19.5126 9.15465 19.5747 9.25408L18.4463 9.78465C18.4331 9.76369 17.1162 7.45053 15.1857 6.82803C13.6252 6.32448 12.187 6.8035 11.5709 7.11749C12.2258 7.37897 13.082 7.85513 13.5979 8.66968C13.8413 9.0544 13.8824 9.53877 13.9221 10.0078C13.9743 10.6287 14.0233 11.2149 14.4803 11.5945L13.2667 11.9916Z" fill="#463014"/>
<path d="M11.2623 21.0806C11.2623 21.0806 12.2078 19.9081 12.4879 17.6266C12.5979 16.728 12.4025 14.9555 12.0898 14.2736C12.1466 15.95 11.7205 17.6266 11.7205 17.6266C11.7205 17.6266 11.4331 20.7395 11.2623 21.0806Z" fill="#463014"/>
<path d="M16.2481 10.8075C16.2476 10.805 15.9447 9.48126 15.1049 8.81304C13.9203 7.87073 12.4738 8.37201 12.4599 8.37642L12.2498 7.7276C12.3199 7.70486 13.9731 7.18393 15.4968 8.25496C17.0295 9.33207 17.2135 10.3084 17.2295 10.4163L16.2481 10.8075Z" fill="#463014"/>
<path d="M14.232 20.2397C14.232 20.2397 13.7359 19.5296 13.8251 18.7486C13.8695 18.3629 14.0483 17.967 14.3674 17.8265C14.9603 17.566 15.2231 18.2381 15.2231 18.2381C15.2231 18.2381 14.3886 18.4441 14.232 20.2397Z" fill="#463014"/>
<path d="M19.6786 21.322C19.6993 21.3607 19.7099 21.3824 19.7099 21.3824C19.7099 21.3824 18.1627 22.5436 16.5771 21.3653C15.7283 20.7339 15.8085 19.1723 16.0685 18.5101C16.7447 18.6633 17.3183 18.9396 17.7977 19.2621C17.1918 18.7214 16.6615 18.3234 16.6629 18.3142L15.9743 18.1193L14.636 17.6604C14.6189 17.7624 14.1307 20.0506 15.5397 21.6097C16.1643 22.301 19.0922 23.8492 20.4823 21.202L19.6786 21.322Z" fill="#463014"/>
<path d="M19.5337 21.4922C20.4048 22.818 22.6027 22.0604 22.5649 20.6587C22.5649 20.6587 21.0962 21.4692 19.7987 19.9769C19.0412 19.1057 16.6139 16.7034 13.3221 17.5018C15.5953 18.0017 18.6048 20.0786 19.5337 21.4922Z" fill="#463014"/>
<path d="M13.0145 25.2341C13.2241 25.3552 13.9631 26.1205 13.9636 27.2653C13.9636 27.8393 13.9065 30.7231 13.6224 32.4848C14.0497 32.7625 14.3474 32.8216 14.7729 33.1046C14.9859 31.0642 15.1387 28.107 15.0675 26.9132C14.9861 25.5523 14.2575 24.6391 13.5818 24.2496C13.3702 24.1279 13.1491 24.0082 12.9264 23.8879C11.769 23.2625 10.5723 22.6156 10.5723 21.511C10.5723 20.6469 10.9082 20.3766 11.2638 20.0901L11.3022 20.0591C11.5382 19.8684 11.8052 19.6522 11.9635 19.2971C12.3952 18.3264 12.4658 15.8535 11.9635 15.2258C11.7131 14.913 11.0421 13.8611 11.235 13.1543C11.3085 12.8845 11.4784 12.6846 11.755 12.5429C12.0477 12.393 12.4431 12.317 12.9298 12.317C13.886 12.317 14.9464 12.608 15.4935 12.7813C17.4485 13.4009 19.8076 15.1874 20.4837 15.7203C20.5032 15.7352 20.5146 15.7439 20.5166 15.7453L20.9493 16.0462L20.6787 15.5933C20.662 15.5651 18.9481 12.747 15.8836 11.7137C15.2874 11.5127 14.1161 11.1754 12.9651 11.1754C12.2797 11.1754 11.6982 11.2951 11.2377 11.5308C10.6766 11.8179 10.2965 12.2759 10.1386 12.855C9.75164 14.2744 11.012 15.8548 11.055 15.9053C11.2019 16.1676 11.2642 18.0731 10.9247 18.8357C10.878 18.941 10.75 19.0445 10.588 19.1752C10.5373 19.2163 10.4805 19.2589 10.4203 19.3045C9.94143 19.666 9.21725 20.2122 9.21725 21.4711C9.21725 23.1937 10.9631 24.1277 12.3661 24.8786C12.5962 25.0025 12.8159 25.1196 13.0145 25.2341Z" fill="#463014"/>
<path d="M13.2667 11.9916C12.5162 11.369 13.0756 10.7911 13.0163 10.0838C12.984 9.70737 12.9543 9.35219 12.8302 9.15632C12.1396 8.06576 10.5103 7.73487 10.494 7.73141L9.72937 7.58162L10.2355 6.98949C10.3011 6.91281 12.3799 4.92946 15.5967 5.96799C17.8468 6.69372 19.5126 9.15465 19.5747 9.25408L18.4463 9.78465C18.4331 9.76369 17.1162 7.45053 15.1857 6.82803C13.6252 6.32448 12.187 6.8035 11.5709 7.11749C12.2258 7.37897 13.082 7.85513 13.5979 8.66968C13.8413 9.0544 13.8824 9.53877 13.9221 10.0078C13.9743 10.6287 14.0233 11.2149 14.4803 11.5945L13.2667 11.9916Z" fill="#463014"/>
<path d="M13.2423 12.1191L13.1938 12.079C12.6373 11.6171 12.736 11.1622 12.8316 10.722C12.8751 10.5188 12.9209 10.3088 12.9023 10.0934C12.872 9.73118 12.8428 9.38945 12.7337 9.21692C12.0761 8.17863 10.4869 7.84595 10.4712 7.84274L9.51612 7.65544L10.1492 6.9153C10.1608 6.90149 11.4954 5.55421 13.7558 5.55421C14.372 5.55421 15.0033 5.65673 15.6314 5.85963C17.98 6.61691 19.6554 9.16846 19.6712 9.1937L19.739 9.30205L18.4043 9.92979L18.3507 9.84477C18.2071 9.59997 16.9417 7.51303 15.1515 6.93554C14.7117 6.79361 14.2485 6.72193 13.775 6.72193C12.9173 6.72193 12.2219 6.95567 11.8518 7.1126C12.4702 7.3911 13.2203 7.85988 13.6949 8.60835C13.9529 9.01605 13.9947 9.51436 14.0356 9.99575C14.0859 10.5944 14.1334 11.1574 14.5534 11.506L14.7118 11.6375L13.2423 12.1191Z" fill="#463014"/>
<path d="M16.2481 10.8075C16.2476 10.805 15.9447 9.48126 15.1049 8.81304C13.9203 7.87073 12.4738 8.37201 12.4599 8.37642L12.2498 7.7276C12.3199 7.70486 13.9731 7.18393 15.4968 8.25496C17.0295 9.33207 17.2135 10.3084 17.2295 10.4163L16.2481 10.8075Z" fill="#463014"/>
<path d="M16.1666 10.9623L16.1371 10.832C16.134 10.8193 15.8369 9.5408 15.0338 8.90223C14.5761 8.53776 14.0241 8.35272 13.3941 8.35272C12.9023 8.35272 12.5369 8.47012 12.497 8.48394L12.3884 8.52001L12.1067 7.6545L12.2147 7.61961C12.2632 7.60425 12.7019 7.46744 13.3227 7.46744C14.1415 7.46744 14.9157 7.70772 15.5625 8.16185C17.1336 9.26599 17.3254 10.287 17.3419 10.3996L17.3557 10.4887L16.1666 10.9623ZM13.3942 8.12577C14.0672 8.12577 14.6836 8.33272 15.1756 8.72398C15.8887 9.29194 16.2241 10.2946 16.3256 10.6541L17.0986 10.3461C17.0286 10.0732 16.7204 9.25408 15.4316 8.34808C14.815 7.91466 14.1057 7.6951 13.3228 7.6951C12.8932 7.6951 12.5594 7.76345 12.3945 7.80512L12.5339 8.23603C12.6956 8.19257 13.0068 8.12577 13.3942 8.12577Z" fill="#463014"/>
<path d="M20.394 39.183C20.0582 39.183 19.7155 39.0612 19.478 38.8555C19.2961 38.6988 18.6813 38.1341 18.4102 37.4422C18.3089 37.1834 18.3317 36.9765 18.4785 36.8275C18.5797 36.7255 18.7897 36.6034 19.2161 36.6034L19.5195 36.603C19.881 36.6026 20.4897 36.6026 21.0099 36.6026H21.5087C21.833 36.6026 22.0656 36.6727 22.1993 36.8094C22.371 36.9859 22.316 37.2103 22.268 37.3285C22.1844 37.5354 21.8385 38.2089 21.2529 38.8349C21.0433 39.0593 20.7381 39.183 20.394 39.183Z" fill="#463014"/>
<path d="M20.7459 21.5702L19.5336 21.4922C19.5336 21.4922 19.8435 22.0385 20.0443 22.745C20.271 23.5442 19.837 24.7122 19.837 24.7122C19.837 24.7122 21.4535 22.8821 20.7459 21.5702Z" fill="#463014"/>
<path d="M19.2326 42.3842C14.9176 42.0526 13.3995 37.9752 13.3995 37.126L14.5263 37.1265L13.9629 37.126H14.5263C14.5319 37.4931 15.6787 40.9809 19.3189 41.2609L19.2326 42.3842Z" fill="#463014"/>
<path d="M18.02 35.0791C17.9526 34.6894 17.9455 34.3198 18.0278 33.9566C17.6999 33.7102 17.1115 33.6186 16.6699 33.4755C16.3089 33.247 14.4614 33.7097 13.1211 32.0876C11.4417 30.0564 11.7951 28.8437 11.7951 28.8437C11.3646 29.3221 10.9472 29.1398 10.2909 31.3705C9.63364 33.6016 10.5994 35.157 12.3994 36.7185C13.2498 37.4561 14.4519 37.76 15.4859 37.8763C15.1395 37.5285 16.0776 37.4937 16.7241 37.2518C16.6726 36.7298 16.7589 36.223 17.1481 35.815C17.3828 35.569 17.6848 35.4219 17.9981 35.3048C18.0156 35.2643 18.0303 35.2269 18.047 35.1881C18.0366 35.1526 18.0265 35.1167 18.02 35.0791Z" fill="white"/>
<path d="M16.7154 37.2382C16.678 37.1287 16.6498 37.017 16.6221 36.9046C16.5922 36.7818 16.4434 36.434 16.6268 36.8311C16.5797 36.7294 16.5489 36.6246 16.5261 36.519C13.611 36.5153 11.075 34.5139 11.5649 30.3061C11.1833 29.7994 10.6489 31.3277 10.6489 31.3277C10.6489 31.3277 9.18963 35.5652 12.9587 37.2075C14.2145 37.7552 15.3243 38.1478 15.5862 37.9893C16.1316 38.1001 16.624 37.7198 16.8087 37.4698C16.774 37.393 16.7425 37.3161 16.7154 37.2382Z" fill="#C9C9C9"/>
<path d="M17.9674 34.469C17.972 34.1138 18.0445 33.7698 18.2162 33.427C18.2282 33.4034 18.2421 33.3808 18.255 33.3578C17.1332 33.3482 15.8413 33.2408 14.7413 32.8005C13.5321 32.3168 12.0196 30.6621 11.7596 28.7179C11.7596 28.7179 9.48242 30.4752 10.1516 34.2363C10.7797 37.7682 13.7351 38.9196 17.1057 39.1144C17.1075 39.0915 16.7266 38.3047 16.847 37.8231C14.9331 37.9621 12.7928 37.2227 11.7596 35.5226C10.8137 33.9666 11.079 31.3101 11.4678 30.9208C12.4161 33.9129 15.8281 34.5211 17.9674 34.469Z" fill="#463014"/>
<path d="M18.3206 32.3269C17.7141 34.1069 16.4751 35.5474 16.4751 35.5474C16.4751 35.5474 18.1794 35.4699 18.2735 35.1683C18.3431 34.946 19.8123 31.5067 20.3762 27.4777C19.8458 28.3492 18.3725 32.1745 18.3206 32.3269Z" fill="#463014"/>
<path d="M27.9761 28.2232C27.9761 28.2232 29.908 31.1779 31.3259 33.2747C31.5452 33.5991 29.908 33.6216 29.908 33.6216L27.9761 28.2232Z" fill="#E78724"/>
<path d="M27.0558 22.0973C27.0558 22.0973 27.6384 23.5505 27.957 24.3209C28.3034 25.1585 29.6239 25.5751 29.6239 25.5751C29.6239 25.5751 28.9395 24.8571 28.9395 23.0382C28.9395 22.2751 27.9544 21.9717 27.9544 21.9717L27.0558 22.0973Z" fill="#E78724"/>
<path d="M27.6441 22.919C27.6441 22.919 28.8376 24.3396 31.054 23.544C33.2705 22.7484 33.4976 19.907 33.4976 19.1114C33.4976 18.3158 29.2924 19.907 28.724 20.248C28.1555 20.589 27.076 21.9527 27.6441 22.919Z" fill="#E78724"/>
<path d="M36.0149 7.73868C36.0149 7.73868 33.9692 7.34063 32.6051 8.42047C31.2413 9.50008 30.8434 10.3527 30.8434 10.3527L33.1422 12.1747C33.1422 12.1747 34.2533 11.6598 34.5944 10.1821C34.9351 8.70469 34.7079 8.0229 36.0149 7.73868Z" fill="#E78724"/>
<path d="M28.241 18.8155C29.1218 17.5653 30.5728 17.0199 31.7322 16.9296C33.7084 16.775 34.646 17.4736 34.646 17.4736C34.646 17.4736 31.4097 17.6106 30.4768 18.8357C28.7402 21.1159 26.2077 21.3012 25.8026 20.8004C26.2709 20.8237 26.7865 20.5917 27.3376 20.0701C27.6821 19.7439 27.9616 19.2124 28.241 18.8155Z" fill="#E78724"/>
<path d="M33.7043 23.2362C33.7043 23.2362 37.2946 22.0018 36.6127 20.7518C35.9309 19.5014 36.4732 18.8203 36.4732 18.8203C36.4732 18.8203 38.4786 20.317 37.9672 21.908C37.6533 22.8846 37.1265 23.5916 34.2339 24.9472C32.8465 27.5243 33.9474 32.1629 33.8818 32.1846C33.7718 32.2212 31.934 31.2761 32.0595 26.9364C32.0976 25.6038 32.2041 23.7845 33.7043 23.2362Z" fill="#E78724"/>
<path d="M28.999 9.9623C30.5042 10.7272 32.5672 11.7924 32.5672 11.7924L31.7555 12.1985C31.833 12.324 31.8705 12.3989 31.8705 12.3989L31.0373 12.7778C31.0373 12.7778 29.0031 14.2513 27.7568 15.1986C28.1718 13.9191 29.3916 11.909 29.3916 11.909C29.3916 11.909 29.7379 10.9853 28.999 9.9623Z" fill="#E78724"/>
<path d="M23.9974 41.1419C28.6244 41.1419 30.192 38.7925 30.192 38.7925L29.4692 40.5537C29.1958 41.3156 26.2794 43.6865 24.0044 43.6865" fill="#E78724"/>
<path d="M29.6853 37.2051C29.6853 37.2051 29.2591 39.8072 27.5547 39.8072C26.1062 39.8072 25.6792 37.6092 25.6792 37.155L29.6853 37.2051Z" fill="#E78724"/>
<path d="M32.5224 33.2807C32.371 32.8637 31.8406 31.1779 31.6698 29.6437C31.4656 27.8062 31.5405 25.1187 31.5405 25.1187C31.5405 25.1187 31.9952 26.8803 32.3925 27.165C32.7907 27.449 33.5292 29.3809 33.5292 29.3809C33.5292 29.3809 33.9249 32.2572 34.1133 33.2239C33.5921 33.3283 33.1537 33.0211 32.5224 33.2807Z" fill="#E78724"/>
<path d="M36.6397 21.8798C36.6397 21.8798 35.6735 21.5385 35.3895 19.4362C35.1055 17.3334 35.7306 15.515 35.7306 15.515C35.7306 15.515 35.6735 18.4132 36.0146 18.9816C36.3559 19.5499 36.6397 19.7202 37.0377 20.4591C37.4351 21.1981 36.8669 21.6523 36.6397 21.8798Z" fill="#E78724"/>
<path d="M35.4861 8.23602L35.6836 8.11111C36.2651 8.13076 35.4861 8.23602 35.4861 8.23602Z" fill="#FDC168"/>
<path d="M28.2125 9.3398C28.2125 9.3398 29.1219 9.18834 29.5763 8.50655C30.031 7.82451 31.3193 6.46045 33.3726 6.44521C35.4256 6.42985 37.4568 6.99091 37.4568 6.99091L35.6836 8.11123C35.4961 8.10516 35.1682 8.10766 34.6254 8.12576C32.4006 8.1997 32.058 10.4007 32.058 10.4007L24.2161 9.32086" fill="#FBA919"/>
<path d="M27.4549 21.4963C27.4549 21.4963 28.5158 22.5573 30.1447 22.216C31.7741 21.8752 32.7591 21.1553 32.835 19.905C32.9106 18.6548 32.4941 18.1623 32.4941 18.1623C32.4941 18.1623 30.6753 18.731 29.8039 19.4887C28.9326 20.2465 28.2887 21.4586 27.4549 21.4963Z" fill="white"/>
<path d="M28.7385 21.1174C28.7385 21.1174 29.6589 21.5377 30.687 21.1953C32.0335 20.7463 32.1232 19.3463 32.1232 19.3463C32.1232 19.3463 32.9486 21.7699 30.6331 22.2364C28.7764 22.6105 27.6778 21.5343 27.6778 21.5343L28.7385 21.1174Z" fill="#C9C9C9"/>
<path d="M34.7531 11.9916C35.5036 11.369 34.9447 10.7911 35.004 10.0838C35.0356 9.70737 35.0654 9.35219 35.1896 9.15632C35.8803 8.06576 37.5094 7.73487 37.5262 7.73141L38.291 7.58162L37.7847 6.98949C37.7191 6.91281 35.6404 4.92946 32.4231 5.96799C30.1733 6.69372 28.5075 9.15465 28.4456 9.25408L29.5734 9.78465C29.5871 9.76369 30.9041 7.45053 32.8346 6.82803C34.395 6.32448 35.8333 6.8035 36.449 7.11749C35.7945 7.37897 34.9379 7.85513 34.4219 8.66968C34.1786 9.0544 34.1378 9.53877 34.0983 10.0078C34.046 10.6287 33.9966 11.2149 33.5395 11.5945L34.7531 11.9916Z" fill="#463014"/>
<path d="M36.7571 21.0806C36.7571 21.0806 35.8121 19.9081 35.532 17.6266C35.422 16.728 35.617 14.9555 35.9296 14.2736C35.8728 15.95 36.2993 17.6266 36.2993 17.6266C36.2993 17.6266 36.5867 20.7395 36.7571 21.0806Z" fill="#463014"/>
<path d="M31.7718 10.8075C31.7723 10.805 32.0752 9.48126 32.9151 8.81304C34.0996 7.87073 35.5462 8.37201 35.5597 8.37642L35.7703 7.7276C35.7 7.70486 34.047 7.18393 32.5229 8.25496C30.9901 9.33207 30.8066 10.3084 30.7902 10.4163L31.7718 10.8075Z" fill="#463014"/>
<path d="M33.7879 20.2397C33.7879 20.2397 34.2839 19.5296 34.1943 18.7486C34.1503 18.3629 33.9716 17.967 33.6525 17.8265C33.0595 17.566 32.7966 18.2381 32.7966 18.2381C32.7966 18.2381 33.6313 18.4441 33.7879 20.2397Z" fill="#463014"/>
<path d="M28.3414 21.322C28.3207 21.3607 28.31 21.3824 28.31 21.3824C28.31 21.3824 29.8567 22.5436 31.4423 21.3652C32.2917 20.7339 32.2114 19.1723 31.9509 18.5101C31.275 18.6633 30.7016 18.9396 30.222 19.2621C30.8279 18.7214 31.3583 18.3234 31.3564 18.3142L32.0454 18.1193L33.3837 17.6606C33.4008 17.7627 33.8889 20.0508 32.4793 21.6099C31.8549 22.3013 28.927 23.8494 27.5372 21.2022L28.3414 21.322Z" fill="#463014"/>
<path d="M28.4858 21.4922C27.6147 22.818 25.4174 22.0604 25.4554 20.6587C25.4554 20.6587 26.9235 21.4692 28.221 19.9769C28.9785 19.1057 31.4064 16.7034 34.6981 17.5018C32.4249 18.0017 29.4152 20.0786 28.4858 21.4922Z" fill="#463014"/>
<path d="M35.0057 25.2341C34.7961 25.3552 34.0566 26.1205 34.0566 27.2653C34.0562 27.8393 34.1134 30.7231 34.3979 32.4848C33.9704 32.7625 33.6728 32.8216 33.2472 33.1046C33.0342 31.0642 32.8809 28.107 32.9526 26.9132C33.0339 25.5523 33.7623 24.6391 34.4379 24.2496C34.6495 24.1279 34.8707 24.0082 35.0939 23.8879C36.2512 23.2625 37.448 22.6156 37.448 21.511C37.448 20.6469 37.1117 20.3766 36.7561 20.0901L36.7182 20.0591C36.4822 19.8684 36.2147 19.6522 36.0569 19.2971C35.625 18.3264 35.5542 15.8535 36.0564 15.2258C36.3068 14.913 36.9782 13.8611 36.7854 13.1543C36.7114 12.8845 36.5414 12.6846 36.2649 12.5429C35.9721 12.393 35.5773 12.317 35.09 12.317C34.1345 12.317 33.0735 12.608 32.5268 12.7813C30.5718 13.4009 28.2128 15.1874 27.5361 15.7203C27.5168 15.7352 27.5057 15.7439 27.5035 15.7453L27.0706 16.0462L27.3412 15.5933C27.3584 15.5651 29.0719 12.747 32.1363 11.7137C32.7326 11.5127 33.9037 11.1754 35.0549 11.1754C35.7403 11.1754 36.3212 11.2951 36.7821 11.5308C37.3434 11.8179 37.7233 12.2759 37.8814 12.855C38.2684 14.2744 37.0079 15.8548 36.9649 15.9053C36.818 16.1676 36.7558 18.0731 37.0948 18.8357C37.1415 18.941 37.2695 19.0445 37.4319 19.1752C37.4826 19.2163 37.5389 19.2589 37.5996 19.3045C38.0786 19.666 38.8024 20.2122 38.8024 21.4711C38.8024 23.1937 37.0566 24.1277 35.6541 24.8786C35.4237 25.0025 35.2038 25.1196 35.0057 25.2341Z" fill="#463014"/>
<path d="M32.9231 11.7889C32.6454 11.3186 31.9353 10.4105 30.2986 9.61247C28.472 8.72219 26.3581 8.27032 24.0144 8.26924V8.26877H24.0099H24.0054V8.26901C21.6614 8.2702 19.547 8.72207 17.721 9.61223C16.0842 10.4104 15.3743 11.3184 15.0964 11.7887L14.9772 11.9465L16.3788 12.2584L16.4232 12.2024L16.4467 12.1509C16.4684 12.0583 16.6563 11.5582 18.2189 10.7961C19.8895 9.98135 21.8379 9.5683 24.0096 9.56758C26.1816 9.5683 28.1292 9.98135 29.7997 10.7961C31.3624 11.5582 31.5509 12.0583 31.5724 12.1509L31.5957 12.2024L31.6396 12.2584L33.0417 11.9465L32.9231 11.7889Z" fill="#463014"/>
<path d="M34.7531 11.9916C35.5036 11.369 34.9447 10.7911 35.004 10.0838C35.0356 9.70737 35.0654 9.35219 35.1896 9.15632C35.8803 8.06576 37.5094 7.73487 37.5262 7.73141L38.291 7.58162L37.7847 6.98949C37.7191 6.91281 35.6404 4.92946 32.4231 5.96799C30.1733 6.69372 28.5075 9.15465 28.4456 9.25408L29.5734 9.78465C29.5871 9.76369 30.9041 7.45053 32.8346 6.82803C34.395 6.32448 35.8333 6.8035 36.449 7.11749C35.7945 7.37897 34.9379 7.85513 34.4219 8.66968C34.1786 9.0544 34.1378 9.53877 34.0983 10.0078C34.046 10.6287 33.9966 11.2149 33.5395 11.5945L34.7531 11.9916Z" fill="#463014"/>
<path d="M33.3086 11.638L33.4665 11.5065C33.8868 11.1579 33.934 10.5948 33.9847 9.99623C34.0254 9.51459 34.0675 9.01629 34.3255 8.60883C34.7996 7.8606 35.5502 7.3917 36.1686 7.11296C35.7984 6.95614 35.1028 6.72241 34.245 6.72241C33.7712 6.72241 33.3089 6.79409 32.869 6.93602C31.0783 7.51351 29.813 9.60044 29.6697 9.84525L29.616 9.93015L28.2814 9.30253L28.3493 9.19418C28.365 9.16893 30.0399 6.61739 32.3886 5.8601C33.0167 5.65721 33.6479 5.55481 34.2646 5.55481C36.5249 5.55481 37.8597 6.90232 37.8712 6.9159L38.5042 7.65603L37.5491 7.84333C37.5332 7.84655 35.9441 8.17899 35.286 9.21751C35.177 9.39017 35.1484 9.73154 35.1174 10.094C35.0994 10.3095 35.1447 10.5195 35.1887 10.7226C35.2842 11.1628 35.3828 11.6181 34.8261 12.0796L34.7777 12.1197L33.3086 11.638Z" fill="#463014"/>
<path d="M31.7718 10.8075C31.7723 10.805 32.0752 9.48126 32.9151 8.81304C34.0996 7.87073 35.5462 8.37201 35.5597 8.37642L35.7703 7.7276C35.7 7.70486 34.047 7.18393 32.5229 8.25496C30.9901 9.33207 30.8066 10.3084 30.7902 10.4163L31.7718 10.8075Z" fill="#463014"/>
<path d="M30.6649 10.4887L30.6781 10.3996C30.6948 10.287 30.8868 9.26622 32.4576 8.16185C33.104 7.70772 33.8784 7.46744 34.6972 7.46744C35.3183 7.46744 35.7571 7.60401 35.8057 7.61961L35.9135 7.6545L35.6319 8.52001L35.5232 8.48394C35.4826 8.47024 35.1173 8.35272 34.6258 8.35272C33.9959 8.35272 33.4443 8.53752 32.9866 8.90223C32.1833 9.54104 31.886 10.8194 31.8833 10.832L31.8537 10.962L30.6649 10.4887ZM35.4861 8.23603L35.626 7.80512C35.4609 7.76321 35.1268 7.6951 34.6972 7.6951C33.9145 7.6951 33.2049 7.9149 32.5886 8.34808C31.2993 9.25432 30.9912 10.0732 30.9213 10.3461L31.6949 10.6541C31.7961 10.2944 32.1312 9.29171 32.8446 8.72398C33.337 8.33272 33.9527 8.12577 34.6257 8.12577C35.0126 8.12577 35.3244 8.19257 35.4861 8.23603Z" fill="#463014"/>
<path d="M26.7674 38.8349C26.182 38.209 25.8356 37.5354 25.7519 37.3285C25.704 37.2106 25.6495 36.9859 25.8212 36.8094C25.955 36.6727 26.187 36.6026 26.5113 36.6026H27.0104C27.5307 36.6026 28.139 36.6026 28.5007 36.603L28.8041 36.6034C29.2303 36.6034 29.4402 36.7254 29.5413 36.8275C29.6882 36.9763 29.7112 37.1832 29.61 37.4422C29.3388 38.1342 28.7239 38.699 28.542 38.8555C28.3039 39.0612 27.962 39.183 27.6263 39.183C27.282 39.183 26.9771 39.0593 26.7674 38.8349Z" fill="#463014"/>
<path d="M27.2742 21.5702L28.4858 21.4922C28.4858 21.4922 28.1764 22.0385 27.9756 22.745C27.7489 23.5442 28.1829 24.7122 28.1829 24.7122C28.1829 24.7122 26.5663 22.8821 27.2742 21.5702Z" fill="#463014"/>
<path d="M24.0101 17.2419C23.2375 17.2419 22.23 17.2207 21.4742 16.6775C21.4742 16.6775 22.4639 18.4124 24.0088 18.4124L24.0101 18.1929L24.0114 18.4124C25.5565 18.4124 26.5461 16.6775 26.5461 16.6775C25.7902 17.2207 24.782 17.2419 24.0101 17.2419Z" fill="#E78724"/>
<path d="M26.1375 17.2335C25.3625 17.7026 24.6704 17.8651 24.0101 17.8795C23.3498 17.8651 22.6578 17.7026 21.8827 17.2335C21.8827 17.2335 23.0114 18.6108 24.0044 18.6214V18.6222C24.0062 18.6222 24.008 18.6218 24.01 18.6218C24.0118 18.6218 24.0136 18.6222 24.0156 18.6222V18.6214C25.0084 18.6108 26.1375 17.2335 26.1375 17.2335Z" fill="#463014"/>
<path d="M28.7874 42.3842L28.701 41.2607C32.3404 40.9808 33.4871 37.493 33.4931 37.1259H34.62C34.6204 37.975 33.1018 42.0525 28.7874 42.3842Z" fill="#463014"/>
<path d="M29.9998 35.0791C30.0676 34.6894 30.0741 34.3198 29.9919 33.9566C30.3203 33.7102 30.9083 33.6186 31.3498 33.4755C31.7108 33.247 33.5588 33.7097 34.8992 32.0876C36.5785 30.0564 36.2247 28.8437 36.2247 28.8437C36.6556 29.3221 37.0726 29.1398 37.7293 31.3705C38.3866 33.6016 37.4204 35.157 35.6204 36.7185C34.7701 37.4561 33.5679 37.76 32.5338 37.8763C32.8802 37.5285 31.9422 37.4937 31.296 37.2518C31.3477 36.7298 31.2609 36.223 30.8718 35.815C30.6375 35.569 30.3351 35.4219 30.0221 35.3048C30.0045 35.2643 29.9893 35.2269 29.9731 35.1881C29.9835 35.1526 29.9933 35.1167 29.9998 35.0791Z" fill="white"/>
<path d="M31.304 37.2382C31.3418 37.1287 31.3696 37.017 31.3973 36.9046C31.4277 36.7818 31.5765 36.434 31.3928 36.8311C31.44 36.7294 31.4708 36.6246 31.4935 36.519C34.4086 36.5153 36.9447 34.5139 36.4542 30.3061C36.8358 29.7994 37.3706 31.3277 37.3706 31.3277C37.3706 31.3277 38.83 35.5652 35.061 37.2075C33.8052 37.7552 32.6954 38.1478 32.4335 37.9893C31.8875 38.1001 31.3952 37.7198 31.211 37.4698C31.2454 37.393 31.2777 37.3161 31.304 37.2382Z" fill="#C9C9C9"/>
<path d="M30.052 34.469C30.0479 34.1138 29.9749 33.7698 29.8037 33.427C29.7916 33.4034 29.7776 33.3808 29.7649 33.3578C30.8865 33.3482 32.1785 33.2408 33.2786 32.8005C34.4877 32.3168 36.0002 30.6621 36.2603 28.7179C36.2603 28.7179 38.5375 30.4752 37.8683 34.2363C37.2397 37.7682 34.2847 38.9196 30.9141 39.1144C30.9124 39.0915 31.2934 38.3047 31.1729 37.8231C33.0863 37.9621 35.2266 37.2227 36.2604 35.5226C37.2057 33.9666 36.9405 31.3101 36.5517 30.9208C35.6038 33.9129 32.1914 34.5211 30.052 34.469Z" fill="#463014"/>
<path d="M31.413 35.3549C31.0104 34.9196 30.27 34.4007 28.5629 34.4007C28.5629 34.4007 25.3263 34.3988 24.0158 34.3979H24.0102H24.0046C22.6943 34.3989 19.4569 34.4007 19.4569 34.4007C17.7503 34.4007 17.0099 34.9197 16.607 35.3549C16.0201 35.9885 15.928 36.8698 16.3341 37.9714C17.4129 40.9037 18.9291 43.8827 24.0044 43.8868V43.8873C24.0063 43.8873 24.008 43.8868 24.01 43.8868C24.0118 43.8868 24.0136 43.8873 24.0156 43.8873V43.8868C29.0905 43.8824 30.6066 40.9037 31.6858 37.9714C32.0919 36.8698 31.9996 35.9885 31.413 35.3549ZM30.6229 37.7658C30.1089 39.2382 28.7274 42.8022 24.0099 42.8084C19.2917 42.8022 17.9108 39.2383 17.3967 37.7658C17.1123 36.9489 17.134 36.3443 17.4633 35.9688C17.6882 35.7121 18.205 35.4057 19.3827 35.4057L20.6131 35.4052C21.5207 35.4044 22.6603 35.4035 24.01 35.403C25.3592 35.4035 26.4994 35.4044 27.4068 35.4052L28.6367 35.4057C29.8148 35.4057 30.3314 35.712 30.5565 35.9688C30.8854 36.3447 30.9074 36.9489 30.6229 37.7658Z" fill="#463014"/>
<path d="M29.699 32.3269C30.3056 34.1069 31.5444 35.5474 31.5444 35.5474C31.5444 35.5474 29.8403 35.4699 29.7461 35.1683C29.6769 34.946 28.2076 31.5067 27.6437 27.4777C28.1738 28.3492 29.647 32.1745 29.699 32.3269Z" fill="#463014"/>
</g>
<defs>
<clipPath id="clip0_184_3">
<rect width="48" height="48" fill="white"/>
</clipPath>
</defs>
</svg>
