<svg width="48" height="48" viewBox="0 0 48 48" fill="none" xmlns="http://www.w3.org/2000/svg">
<g clip-path="url(#clip0_184_3)">
<path d="M36.75 0H11.25C5.0368 0 0 5.0368 0 11.25V36.75C0 42.9632 5.0368 48 11.25 48H36.75C42.9632 48 48 42.9632 48 36.75V11.25C48 5.0368 42.9632 0 36.75 0Z" fill="#242938"/>
<path fill-rule="evenodd" clip-rule="evenodd" d="M10.0424 11.2578H12.6447V28.5274H22.9354V30.6565H10.0424L10.0424 11.2578Z" fill="white"/>
<path fill-rule="evenodd" clip-rule="evenodd" d="M30.0325 16.3441C31.8068 16.1075 33.6993 16.4623 35.1188 17.6452C36.6565 18.7097 37.4844 20.6023 37.6027 22.3766C37.8393 24.5057 37.6027 26.6348 36.4199 28.4091C35.3553 29.8285 33.6993 30.7748 31.8068 30.8931C30.0325 31.1296 28.0217 30.7748 26.484 29.5919C25.0646 28.4091 24.3549 26.6348 24.1183 24.8605C23.8817 22.968 24.1183 20.8389 25.3011 19.1829C26.2474 17.5269 28.14 16.4623 30.0325 16.3441ZM30.3874 18.3549C31.5702 18.2366 32.8713 18.5915 33.8176 19.4195C34.6456 20.3657 35.1188 21.5486 35.237 22.7314C35.3553 24.0326 35.237 25.452 34.6456 26.6348C34.0542 27.8177 32.9896 28.6457 31.6885 28.8822C30.5057 29.1188 29.2045 28.7639 28.3765 28.0542C27.4303 27.3445 26.8388 26.28 26.6023 25.2154C26.3657 23.6777 26.484 22.14 27.0754 20.7206C27.6668 19.4195 28.968 18.4732 30.3874 18.3549Z" fill="white"/>
<path fill-rule="evenodd" clip-rule="evenodd" d="M10.0424 33.7319H37.9576V36.689H10.0424V33.7319Z" fill="#3492FF"/>
</g>
<defs>
<clipPath id="clip0_184_3">
<rect width="48" height="48" fill="white"/>
</clipPath>
</defs>
</svg>
